<svg width="0" height="0" class="hidden">
  <symbol fill="none" xmlns="http://www.w3.org/2000/svg" viewBox="0 0 30 30" id="arrow">
    <g clip-path="url(#clip0)">
      <path d="M29.817 14.558l-9.375-9.375a.625.625 0 10-.884.884l8.308 8.308H.626a.625.625 0 100 1.25h27.24l-8.308 8.308a.625.625 0 10.884.884l9.375-9.375a.625.625 0 000-.884z" fill="#000"></path>
    </g>
    <defs>
      <clipPath id="clip0">
        <path fill="#fff" d="M0 0h30v30H0z"></path>
      </clipPath>
    </defs>
  </symbol>
  <symbol fill="none" xmlns="http://www.w3.org/2000/svg" viewBox="0 0 30 30" id="close-24px">
    <path d="M23.75 8.012L21.988 6.25 15 13.238 8.013 6.25 6.25 8.012 13.238 15 6.25 21.988l1.763 1.762L15 16.762l6.988 6.988 1.762-1.762L16.763 15l6.987-6.988z" fill="#000"></path>
  </symbol>
  <symbol fill="none" xmlns="http://www.w3.org/2000/svg" viewBox="0 0 30 30" id="favorite-heart-button">
    <g clip-path="url(#clip0)">
      <path d="M15 28.8l-2.1-2.1C5.1 19.8 0 15.15 0 9.45 0 4.8 3.6 1.2 8.25 1.2c2.55 0 5.1 1.2 6.75 3.15 1.65-1.95 4.2-3.15 6.75-3.15C26.4 1.2 30 4.8 30 9.45c0 5.7-5.1 10.35-12.9 17.25L15 28.8z" fill="#000"></path>
    </g>
    <defs>
      <clipPath id="clip0">
        <path fill="#fff" d="M0 0h30v30H0z"></path>
      </clipPath>
    </defs>
  </symbol>
  <symbol fill="none" xmlns="http://www.w3.org/2000/svg" viewBox="0 0 30 30" id="heart">
    <path d="M15 28.331a1.76 1.76 0 01-1.16-.436 347.902 347.902 0 00-3.411-2.934l-.005-.004c-3.023-2.576-5.633-4.8-7.449-6.991C.945 15.516 0 13.194 0 10.656c0-2.465.845-4.739 2.38-6.403 1.553-1.685 3.684-2.612 6-2.612 1.732 0 3.318.547 4.714 1.627A9.644 9.644 0 0115 5.258a9.645 9.645 0 011.906-1.99c1.396-1.08 2.982-1.627 4.713-1.627 2.317 0 4.448.927 6.001 2.612C29.155 5.917 30 8.19 30 10.656c0 2.538-.945 4.86-2.975 7.31-1.816 2.19-4.426 4.415-7.448 6.99a337.24 337.24 0 00-3.418 2.94A1.76 1.76 0 0115 28.33zM8.38 3.398c-1.82 0-3.492.726-4.708 2.046-1.235 1.339-1.915 3.19-1.915 5.212 0 2.134.793 4.043 2.571 6.188 1.72 2.074 4.275 4.253 7.235 6.775l.006.005c1.035.882 2.208 1.881 3.428 2.949a409.452 409.452 0 013.44-2.954c2.96-2.523 5.516-4.7 7.235-6.775 1.778-2.145 2.57-4.054 2.57-6.188 0-2.022-.68-3.873-1.914-5.212-1.216-1.32-2.888-2.046-4.709-2.046-1.333 0-2.557.424-3.638 1.26-.964.745-1.635 1.687-2.028 2.346a1.1 1.1 0 01-.953.542 1.1 1.1 0 01-.953-.542c-.393-.659-1.064-1.601-2.028-2.346-1.08-.836-2.305-1.26-3.638-1.26z" fill="#000"></path>
  </symbol>
  <symbol fill="none" xmlns="http://www.w3.org/2000/svg" viewBox="0 0 30 30" id="menu-24px">
    <path d="M3.75 22.5h22.5V20H3.75v2.5zm0-6.25h22.5v-2.5H3.75v2.5zm0-8.75V10h22.5V7.5H3.75z" fill="#000"></path>
  </symbol>
  <symbol fill="none" xmlns="http://www.w3.org/2000/svg" viewBox="0 0 30 30" id="sign-out">
    <g clip-path="url(#clip0)" fill="#000">
      <path d="M23.712 8.712l-1.325 1.326 4.024 4.024H13.125v1.876h13.286l-4.024 4.024 1.325 1.326L30 15l-6.288-6.288z"></path>
      <path d="M20.625 28.125H1.875V1.875h18.75V3.75H22.5V.938A.937.937 0 0021.563 0H.938A.937.937 0 000 .938v28.125c0 .518.42.937.938.937h20.625c.518 0 .937-.42.937-.938V26.25h-1.875v1.875z"></path>
    </g>
    <defs>
      <clipPath id="clip0">
        <path fill="#fff" d="M0 0h30v30H0z"></path>
      </clipPath>
    </defs>
  </symbol>
</svg>