<svg xmlns="http://www.w3.org/2000/svg" viewBox="0 0 512 512"><path d="M361 396c-11.046 0-20 8.954-20 20v56H55V40h286v56c0 11.046 8.954 20 20 20s20-8.954 20-20V20c0-11.046-8.954-20-20-20H35C23.954 0 15 8.954 15 20v472c0 11.046 8.954 20 20 20h326c11.046 0 20-8.954 20-20v-76c0-11.046-8.954-20-20-20z"/><path d="M491.141 241.858l-53.74-53.74c-7.81-7.811-20.473-7.81-28.284 0s-7.811 20.474 0 28.285L428.715 236l-165.678-.001c-11.045 0-20 8.954-20 20s8.954 20 20 20l165.68.001-19.599 19.599c-7.811 7.809-7.811 20.473 0 28.284 7.81 7.811 20.474 7.809 28.284-.001l53.74-53.74a.022.022 0 01.004-.005c4.024-4.027 5.709-8.682 5.854-14.137 0-5.392-2.291-10.576-5.859-14.142z"/></svg>