<svg width="16" height="16" viewBox="0 0 16 16" fill="none" xmlns="http://www.w3.org/2000/svg">
<path id="Vector" d="M6.56 7.145C6.5975 6.8975 6.68 6.68 6.785 6.4925C6.89 6.305 7.04 6.1475 7.2275 6.0275C7.4075 5.915 7.6325 5.8625 7.91 5.855C8.0825 5.8625 8.24 5.8925 8.3825 5.9525C8.5325 6.02 8.6675 6.11 8.7725 6.2225C8.8775 6.335 8.96 6.47 9.0275 6.62C9.095 6.77 9.125 6.935 9.1325 7.1H10.475C10.46 6.7475 10.3925 6.425 10.265 6.1325C10.1375 5.84 9.965 5.585 9.74 5.375C9.515 5.165 9.245 5 8.93 4.88C8.615 4.76 8.27 4.7075 7.8875 4.7075C7.4 4.7075 6.9725 4.79 6.6125 4.9625C6.2525 5.135 5.9525 5.36 5.7125 5.6525C5.4725 5.945 5.2925 6.2825 5.18 6.6725C5.0675 7.0625 5 7.4675 5 7.9025V8.105C5 8.54 5.06 8.945 5.1725 9.335C5.285 9.725 5.465 10.0625 5.705 10.3475C5.945 10.6325 6.245 10.865 6.605 11.03C6.965 11.195 7.3925 11.285 7.88 11.285C8.2325 11.285 8.5625 11.225 8.87 11.1125C9.1775 11 9.4475 10.8425 9.68 10.64C9.9125 10.4375 10.1 10.205 10.235 9.935C10.37 9.665 10.4525 9.38 10.46 9.0725H9.1175C9.11 9.23 9.0725 9.3725 9.005 9.5075C8.9375 9.6425 8.8475 9.755 8.735 9.8525C8.6225 9.95 8.495 10.025 8.345 10.0775C8.2025 10.13 8.0525 10.145 7.895 10.1525C7.625 10.145 7.4 10.0925 7.2275 9.98C7.04 9.86 6.89 9.7025 6.785 9.515C6.68 9.3275 6.5975 9.1025 6.56 8.855C6.5225 8.6075 6.5 8.3525 6.5 8.105V7.9025C6.5 7.64 6.5225 7.3925 6.56 7.145ZM8 0.5C3.86 0.5 0.5 3.86 0.5 8C0.5 12.14 3.86 15.5 8 15.5C12.14 15.5 15.5 12.14 15.5 8C15.5 3.86 12.14 0.5 8 0.5ZM8 14C4.6925 14 2 11.3075 2 8C2 4.6925 4.6925 2 8 2C11.3075 2 14 4.6925 14 8C14 11.3075 11.3075 14 8 14Z" fill="white" fill-opacity="0.4"/>
</svg>
